# xmcd CD database file
#
# Track frame offsets:
#	150
#	6400
#	32319
#	62717
#	91958
#	125570
#	151390
#	175335
#	201073
#	221516
#
# Disc length: 3300 seconds
#
# Revision: 0
# Processed by: cddbd v1.4PL0 Copyright (c) Steve Scherf et al.
# Submitted via: CDex 1.50Beta7
#
DISCID=810ce20a
DTITLE=Babos - egyszer volt...
DYEAR=1900
DGENRE=Jazz
TTITLE0=intro
TTITLE1=nara-nannáy
TTITLE2=gelem
TTITLE3=trans-sylvania
TTITLE4=csillagok
TTITLE5=három nap
TTITLE6=romantic gipsy heart
TTITLE7=true colours
TTITLE8=mathild song
TTITLE9=mese fehéren-feketén
EXTD=
EXTT0=
EXTT1=
EXTT2=
EXTT3=
EXTT4=
EXTT5=
EXTT6=
EXTT7=
EXTT8=
EXTT9=
PLAYORDER=
